<svg width="311" height="28" viewBox="0 0 311 28" fill="none" xmlns="http://www.w3.org/2000/svg">
<path d="M7.17578 1.40625L13.75 19.9688L20.2891 1.40625H27.2148V27H21.9238V20.0039L22.4512 7.92773L15.543 27H11.9219L5.03125 7.94531L5.55859 20.0039V27H0.285156V1.40625H7.17578ZM42.5078 27C42.2734 26.543 42.1035 25.9746 41.998 25.2949C40.7676 26.666 39.168 27.3516 37.1992 27.3516C35.3359 27.3516 33.7891 26.8125 32.5586 25.7344C31.3398 24.6562 30.7305 23.2969 30.7305 21.6562C30.7305 19.6406 31.4746 18.0938 32.9629 17.0156C34.4629 15.9375 36.625 15.3926 39.4492 15.3809H41.7871V14.291C41.7871 13.4121 41.5586 12.709 41.1016 12.1816C40.6562 11.6543 39.9473 11.3906 38.9746 11.3906C38.1191 11.3906 37.4453 11.5957 36.9531 12.0059C36.4727 12.416 36.2324 12.9785 36.2324 13.6934H31.1523C31.1523 12.5918 31.4922 11.5723 32.1719 10.6348C32.8516 9.69727 33.8125 8.96484 35.0547 8.4375C36.2969 7.89844 37.6914 7.62891 39.2383 7.62891C41.582 7.62891 43.4395 8.2207 44.8105 9.4043C46.1934 10.5762 46.8848 12.2285 46.8848 14.3613V22.6055C46.8965 24.4102 47.1484 25.7754 47.6406 26.7012V27H42.5078ZM38.3066 23.4668C39.0566 23.4668 39.748 23.3027 40.3809 22.9746C41.0137 22.6348 41.4824 22.1836 41.7871 21.6211V18.3516H39.8887C37.3457 18.3516 35.9922 19.2305 35.8281 20.9883L35.8105 21.2871C35.8105 21.9199 36.0332 22.4414 36.4785 22.8516C36.9238 23.2617 37.5332 23.4668 38.3066 23.4668ZM61.4746 12.7441C60.7832 12.6504 60.1738 12.6035 59.6465 12.6035C57.7246 12.6035 56.4648 13.2539 55.8672 14.5547V27H50.7871V7.98047H55.5859L55.7266 10.248C56.7461 8.50195 58.1582 7.62891 59.9629 7.62891C60.5254 7.62891 61.0527 7.70508 61.5449 7.85742L61.4746 12.7441ZM71.3711 20.7949L74.9043 7.98047H80.2129L73.7969 27H68.9453L62.5293 7.98047H67.8379L71.3711 20.7949ZM90.9707 27.3516C88.1816 27.3516 85.9082 26.4961 84.1504 24.7852C82.4043 23.0742 81.5312 20.7949 81.5312 17.9473V17.4551C81.5312 15.5449 81.9004 13.8398 82.6387 12.3398C83.377 10.8281 84.4199 9.66797 85.7676 8.85938C87.127 8.03906 88.6738 7.62891 90.4082 7.62891C93.0098 7.62891 95.0547 8.44922 96.543 10.0898C98.043 11.7305 98.793 14.0566 98.793 17.0684V19.1426H86.6816C86.8457 20.3848 87.3379 21.3809 88.1582 22.1309C88.9902 22.8809 90.0391 23.2559 91.3047 23.2559C93.2617 23.2559 94.791 22.5469 95.8926 21.1289L98.3887 23.9238C97.627 25.002 96.5957 25.8457 95.2949 26.4551C93.9941 27.0527 92.5527 27.3516 90.9707 27.3516ZM90.3906 11.7422C89.3828 11.7422 88.5625 12.082 87.9297 12.7617C87.3086 13.4414 86.9102 14.4141 86.7344 15.6797H93.8008V15.2754C93.7773 14.1504 93.4727 13.2832 92.8867 12.6738C92.3008 12.0527 91.4688 11.7422 90.3906 11.7422ZM107.055 27H101.957V0H107.055V27ZM133.826 20.2852C133.826 19.2891 133.475 18.5273 132.771 18C132.068 17.4609 130.803 16.8984 128.975 16.3125C127.146 15.7148 125.699 15.1289 124.633 14.5547C121.727 12.9844 120.273 10.8691 120.273 8.20898C120.273 6.82617 120.66 5.5957 121.434 4.51758C122.219 3.42773 123.338 2.57813 124.791 1.96875C126.256 1.35937 127.896 1.05469 129.713 1.05469C131.541 1.05469 133.17 1.38867 134.6 2.05664C136.029 2.71289 137.137 3.64453 137.922 4.85156C138.719 6.05859 139.117 7.42969 139.117 8.96484H133.844C133.844 7.79297 133.475 6.88477 132.736 6.24023C131.998 5.58398 130.961 5.25586 129.625 5.25586C128.336 5.25586 127.334 5.53125 126.619 6.08203C125.904 6.62109 125.547 7.33594 125.547 8.22656C125.547 9.05859 125.963 9.75586 126.795 10.3184C127.639 10.8809 128.875 11.4082 130.504 11.9004C133.504 12.8027 135.689 13.9219 137.061 15.2578C138.432 16.5938 139.117 18.2578 139.117 20.25C139.117 22.4648 138.279 24.2051 136.604 25.4707C134.928 26.7246 132.672 27.3516 129.836 27.3516C127.867 27.3516 126.074 26.9941 124.457 26.2793C122.84 25.5527 121.604 24.5625 120.748 23.3086C119.904 22.0547 119.482 20.6016 119.482 18.9492H124.773C124.773 21.7734 126.461 23.1855 129.836 23.1855C131.09 23.1855 132.068 22.9336 132.771 22.4297C133.475 21.9141 133.826 21.1992 133.826 20.2852ZM148.451 3.30469V7.98047H151.703V11.707H148.451V21.1992C148.451 21.9023 148.586 22.4062 148.855 22.7109C149.125 23.0156 149.641 23.168 150.402 23.168C150.965 23.168 151.463 23.127 151.896 23.0449V26.8945C150.9 27.1992 149.875 27.3516 148.82 27.3516C145.258 27.3516 143.441 25.5527 143.371 21.9551V11.707H140.594V7.98047H143.371V3.30469H148.451ZM165.221 12.7441C164.529 12.6504 163.92 12.6035 163.393 12.6035C161.471 12.6035 160.211 13.2539 159.613 14.5547V27H154.533V7.98047H159.332L159.473 10.248C160.492 8.50195 161.904 7.62891 163.709 7.62891C164.271 7.62891 164.799 7.70508 165.291 7.85742L165.221 12.7441ZM173.043 27H167.945V7.98047H173.043V27ZM167.646 3.05859C167.646 2.29688 167.898 1.66992 168.402 1.17773C168.918 0.685547 169.615 0.439453 170.494 0.439453C171.361 0.439453 172.053 0.685547 172.568 1.17773C173.084 1.66992 173.342 2.29688 173.342 3.05859C173.342 3.83203 173.078 4.46484 172.551 4.95703C172.035 5.44922 171.35 5.69531 170.494 5.69531C169.639 5.69531 168.947 5.44922 168.42 4.95703C167.904 4.46484 167.646 3.83203 167.646 3.05859ZM184.152 19.3711L182.324 21.1992V27H177.244V0H182.324V14.959L183.309 13.6934L188.178 7.98047H194.277L187.404 15.9082L194.875 27H189.039L184.152 19.3711ZM204.877 27.3516C202.088 27.3516 199.814 26.4961 198.057 24.7852C196.311 23.0742 195.438 20.7949 195.438 17.9473V17.4551C195.438 15.5449 195.807 13.8398 196.545 12.3398C197.283 10.8281 198.326 9.66797 199.674 8.85938C201.033 8.03906 202.58 7.62891 204.314 7.62891C206.916 7.62891 208.961 8.44922 210.449 10.0898C211.949 11.7305 212.699 14.0566 212.699 17.0684V19.1426H200.588C200.752 20.3848 201.244 21.3809 202.064 22.1309C202.896 22.8809 203.945 23.2559 205.211 23.2559C207.168 23.2559 208.697 22.5469 209.799 21.1289L212.295 23.9238C211.533 25.002 210.502 25.8457 209.201 26.4551C207.9 27.0527 206.459 27.3516 204.877 27.3516ZM204.297 11.7422C203.289 11.7422 202.469 12.082 201.836 12.7617C201.215 13.4414 200.816 14.4141 200.641 15.6797H207.707V15.2754C207.684 14.1504 207.379 13.2832 206.793 12.6738C206.207 12.0527 205.375 11.7422 204.297 11.7422ZM243.109 5.67773H235.27V27H229.996V5.67773H222.262V1.40625H243.109V5.67773ZM252.971 27.3516C250.182 27.3516 247.908 26.4961 246.15 24.7852C244.404 23.0742 243.531 20.7949 243.531 17.9473V17.4551C243.531 15.5449 243.9 13.8398 244.639 12.3398C245.377 10.8281 246.42 9.66797 247.768 8.85938C249.127 8.03906 250.674 7.62891 252.408 7.62891C255.01 7.62891 257.055 8.44922 258.543 10.0898C260.043 11.7305 260.793 14.0566 260.793 17.0684V19.1426H248.682C248.846 20.3848 249.338 21.3809 250.158 22.1309C250.99 22.8809 252.039 23.2559 253.305 23.2559C255.262 23.2559 256.791 22.5469 257.893 21.1289L260.389 23.9238C259.627 25.002 258.596 25.8457 257.295 26.4551C255.994 27.0527 254.553 27.3516 252.971 27.3516ZM252.391 11.7422C251.383 11.7422 250.562 12.082 249.93 12.7617C249.309 13.4414 248.91 14.4141 248.734 15.6797H255.801V15.2754C255.777 14.1504 255.473 13.2832 254.887 12.6738C254.301 12.0527 253.469 11.7422 252.391 11.7422ZM274.715 27C274.48 26.543 274.311 25.9746 274.205 25.2949C272.975 26.666 271.375 27.3516 269.406 27.3516C267.543 27.3516 265.996 26.8125 264.766 25.7344C263.547 24.6562 262.938 23.2969 262.938 21.6562C262.938 19.6406 263.682 18.0938 265.17 17.0156C266.67 15.9375 268.832 15.3926 271.656 15.3809H273.994V14.291C273.994 13.4121 273.766 12.709 273.309 12.1816C272.863 11.6543 272.154 11.3906 271.182 11.3906C270.326 11.3906 269.652 11.5957 269.16 12.0059C268.68 12.416 268.439 12.9785 268.439 13.6934H263.359C263.359 12.5918 263.699 11.5723 264.379 10.6348C265.059 9.69727 266.02 8.96484 267.262 8.4375C268.504 7.89844 269.898 7.62891 271.445 7.62891C273.789 7.62891 275.646 8.2207 277.018 9.4043C278.4 10.5762 279.092 12.2285 279.092 14.3613V22.6055C279.104 24.4102 279.355 25.7754 279.848 26.7012V27H274.715ZM270.514 23.4668C271.264 23.4668 271.955 23.3027 272.588 22.9746C273.221 22.6348 273.689 22.1836 273.994 21.6211V18.3516H272.096C269.553 18.3516 268.199 19.2305 268.035 20.9883L268.018 21.2871C268.018 21.9199 268.24 22.4414 268.686 22.8516C269.131 23.2617 269.74 23.4668 270.514 23.4668ZM287.758 7.98047L287.916 10.1074C289.264 8.45508 291.086 7.62891 293.383 7.62891C295.832 7.62891 297.514 8.5957 298.428 10.5293C299.764 8.5957 301.668 7.62891 304.141 7.62891C306.203 7.62891 307.738 8.23242 308.746 9.43945C309.754 10.6348 310.258 12.4395 310.258 14.8535V27H305.16V14.8711C305.16 13.793 304.949 13.0078 304.527 12.5156C304.105 12.0117 303.361 11.7598 302.295 11.7598C300.771 11.7598 299.717 12.4863 299.131 13.9395L299.148 27H294.068V14.8887C294.068 13.7871 293.852 12.9902 293.418 12.498C292.984 12.0059 292.246 11.7598 291.203 11.7598C289.762 11.7598 288.719 12.3574 288.074 13.5527V27H282.994V7.98047H287.758Z" fill="white"/>
</svg>
